<svg xmlns="http://www.w3.org/2000/svg" width="1440" height="480" viewBox="0 0 1440 480" role="img" aria-labelledby="title desc"><title id="title">NF4 spends more reconstruction levels near zero</title><desc id="desc">An explicitly illustrative normal density with standard deviation one third is plotted over normalized values minus one to one. Beneath it are all sixteen pinned NF4 reconstruction levels and sixteen uniformly spaced levels on the same axis. Tick marks are reconstructed values, not quantile boundaries.</desc><rect width="1440" height="480" fill="#faf9f5"/><g font-family="Arial, sans-serif"><text x="150" y="40" fill="#172b35" font-size="32" text-anchor="start">Illustrative normal density · standard deviation 1/3</text><polyline points="210,223.44474048464608 217.12499999999997,223.26077554628566 224.25,223.057783352495 231.375,222.83414696021418 238.50000000000003,222.58815401637108 245.625,222.31799594280193 252.74999999999997,222.0217677416446 259.875,221.69746849335584 267,221.34300262045144 274.125,220.9561819902567 281.25,220.534728929298 288.375,220.0762802203765 295.5,219.578392150767 302.625,219.03854667630404 309.75,218.4541587612873 316.875,217.8225849481079 324,217.14113320322127 331.125,216.40707407754297 338.25,215.617653209511 345.375,214.770105187943 352.5,213.8616687794481 359.625,212.889603511573 366.75,211.85120758813937 373.875,210.74383709745587 381,209.56492645737205 388.125,208.31201002362937 395.25,206.9827447698073 402.375,205.57493392855523 409.5,204.0865514649415 416.625,202.51576723387146 423.75,200.86097265487462 430.875,199.12080671939188 438,197.29418212829393 445.125,195.38031134100663 452.25,193.37873230260797 459.375,191.2893336018852 466.5,189.1123788018897 473.625,186.84852967528943 480.75,184.49886807006138 487.875,182.06491612704576 495,179.54865456983103 502.125,176.95253878955359 509.25,174.2795124526542 516.375,171.53301836855965 523.5,168.7170063667483 530.625,165.83593794875355 537.75,162.89478750035195 544.875,159.89903987241962 552,156.854684165604 559.125,153.7682035838833 566.25,150.64656125505167 573.375,147.4971819518912 580.5,144.327929685948 587.625,141.14708118603306 594.75,137.96329531539294 601.875,134.78557852447267 609,131.6232464798136 616.125,128.48588205336205 623.25,125.38328989974487 630.375,122.325447891329 637.5,119.32245572153897 644.625,116.38448102538406 651.75,113.5217034018813 658.875,110.74425675550334 666,108.0621704024219 673.125,105.48530941167932 680.25,103.02331467107649 687.375,100.68554318214387 694.5,98.48100909775255 701.625,96.41832601948605 708.75,94.50565106966613 715.875,92.75063124481755 723,91.160352543366 730.125,89.74129234056699 737.25,88.49927545822149 744.375,87.43943434589394 751.5,86.56617375442738 758.625,85.88314024195535 765.75,85.3931968078017 772.875,85.09840290117597 780,85 787.125,85.09840290117597 794.25,85.3931968078017 801.375,85.88314024195535 808.5,86.56617375442738 815.625,87.43943434589394 822.75,88.49927545822149 829.875,89.74129234056696 837,91.16035254336603 844.125,92.75063124481755 851.25,94.50565106966613 858.375,96.41832601948605 865.5,98.48100909775253 872.625,100.68554318214389 879.75,103.02331467107649 886.875,105.48530941167932 894,108.0621704024219 901.125,110.74425675550332 908.25,113.52170340188133 915.375,116.38448102538406 922.5,119.32245572153897 929.625,122.325447891329 936.75,125.38328989974484 943.875,128.48588205336205 951,131.6232464798136 958.125,134.78557852447267 965.25,137.96329531539294 972.375,141.14708118603303 979.5,144.32792968594805 986.625,147.4971819518912 993.75,150.64656125505167 1000.875,153.7682035838833 1008,156.85468416560394 1015.125,159.89903987241965 1022.25,162.89478750035195 1029.375,165.83593794875355 1036.5,168.7170063667483 1043.625,171.53301836855962 1050.75,174.27951245265422 1057.875,176.95253878955359 1065,179.54865456983103 1072.125,182.06491612704576 1079.25,184.49886807006135 1086.375,186.84852967528946 1093.5,189.1123788018897 1100.625,191.2893336018852 1107.75,193.37873230260797 1114.875,195.38031134100663 1122,197.29418212829395 1129.125,199.12080671939188 1136.25,200.86097265487462 1143.375,202.51576723387146 1150.5,204.08655146494146 1157.625,205.57493392855525 1164.75,206.9827447698073 1171.875,208.31201002362937 1179,209.56492645737205 1186.125,210.74383709745584 1193.25,211.85120758813937 1200.375,212.889603511573 1207.5,213.8616687794481 1214.625,214.770105187943 1221.75,215.61765320951096 1228.875,216.40707407754297 1236,217.14113320322127 1243.125,217.8225849481079 1250.25,218.4541587612873 1257.375,219.03854667630404 1264.5,219.578392150767 1271.625,220.0762802203765 1278.75,220.534728929298 1285.875,220.9561819902567 1293,221.34300262045144 1300.125,221.69746849335584 1307.25,222.0217677416446 1314.375,222.31799594280193 1321.5,222.58815401637108 1328.625,222.83414696021418 1335.75,223.057783352495 1342.875,223.26077554628566 1350,223.44474048464608" fill="none" stroke="#175cad" stroke-width="6"/><line x1="210" y1="225" x2="1350" y2="225" stroke="#4b6070" stroke-width="4"/><text x="35" y="285" fill="#146957" font-size="32" text-anchor="start">NF4</text><text x="35" y="365" fill="#89540a" font-size="32" text-anchor="start">Uniform</text><line x1="210" y1="280" x2="1350" y2="280" stroke="#4b6070" stroke-width="4"/><line x1="210" y1="262" x2="210" y2="298" stroke="#146957" stroke-width="4"/><line x1="383.170103430748" y1="262" x2="383.170103430748" y2="298" stroke="#146957" stroke-width="4"/><line x1="480.70836067199707" y1="262" x2="480.70836067199707" y2="298" stroke="#146957" stroke-width="4"/><line x1="554.8970317840576" y1="262" x2="554.8970317840576" y2="298" stroke="#146957" stroke-width="4"/><line x1="617.8684124350548" y1="262" x2="617.8684124350548" y2="298" stroke="#146957" stroke-width="4"/><line x1="674.679144769907" y1="262" x2="674.679144769907" y2="298" stroke="#146957" stroke-width="4"/><line x1="728.1014793366194" y1="262" x2="728.1014793366194" y2="298" stroke="#146957" stroke-width="4"/><line x1="780" y1="262" x2="780" y2="298" stroke="#146957" stroke-width="4"/><line x1="825.3607707470655" y1="262" x2="825.3607707470655" y2="298" stroke="#146957" stroke-width="4"/><line x1="871.7302148044109" y1="262" x2="871.7302148044109" y2="298" stroke="#146957" stroke-width="4"/><line x1="920.2840121090412" y1="262" x2="920.2840121090412" y2="298" stroke="#146957" stroke-width="4"/><line x1="972.6116877794266" y1="262" x2="972.6116877794266" y2="298" stroke="#146957" stroke-width="4"/><line x1="1031.2046027183533" y1="262" x2="1031.2046027183533" y2="298" stroke="#146957" stroke-width="4"/><line x1="1100.6916922330856" y1="262" x2="1100.6916922330856" y2="298" stroke="#146957" stroke-width="4"/><line x1="1192.0853966474533" y1="262" x2="1192.0853966474533" y2="298" stroke="#146957" stroke-width="4"/><line x1="1350" y1="262" x2="1350" y2="298" stroke="#146957" stroke-width="4"/><line x1="210" y1="360" x2="1350" y2="360" stroke="#4b6070" stroke-width="4"/><line x1="210" y1="342" x2="210" y2="378" stroke="#89540a" stroke-width="4"/><line x1="286" y1="342" x2="286" y2="378" stroke="#89540a" stroke-width="4"/><line x1="362" y1="342" x2="362" y2="378" stroke="#89540a" stroke-width="4"/><line x1="438" y1="342" x2="438" y2="378" stroke="#89540a" stroke-width="4"/><line x1="514" y1="342" x2="514" y2="378" stroke="#89540a" stroke-width="4"/><line x1="590" y1="342" x2="590" y2="378" stroke="#89540a" stroke-width="4"/><line x1="666" y1="342" x2="666" y2="378" stroke="#89540a" stroke-width="4"/><line x1="742" y1="342" x2="742" y2="378" stroke="#89540a" stroke-width="4"/><line x1="818" y1="342" x2="818" y2="378" stroke="#89540a" stroke-width="4"/><line x1="894" y1="342" x2="894" y2="378" stroke="#89540a" stroke-width="4"/><line x1="970" y1="342" x2="970" y2="378" stroke="#89540a" stroke-width="4"/><line x1="1046" y1="342" x2="1046" y2="378" stroke="#89540a" stroke-width="4"/><line x1="1122" y1="342" x2="1122" y2="378" stroke="#89540a" stroke-width="4"/><line x1="1198" y1="342" x2="1198" y2="378" stroke="#89540a" stroke-width="4"/><line x1="1274" y1="342" x2="1274" y2="378" stroke="#89540a" stroke-width="4"/><line x1="1350" y1="342" x2="1350" y2="378" stroke="#89540a" stroke-width="4"/><text x="210" y="425" fill="#172b35" font-size="30" text-anchor="middle">-1</text><text x="780" y="425" fill="#172b35" font-size="30" text-anchor="middle">0</text><text x="1350" y="425" fill="#172b35" font-size="30" text-anchor="middle">1</text><text x="775" y="470" fill="#172b35" font-size="30" text-anchor="middle">Normalized weight value · each tick is one reconstruction level</text></g></svg>
